<svg version="1.1" viewBox="0 0 413.64 458.11" xmlns="http://www.w3.org/2000/svg" xmlns:xlink="http://www.w3.org/1999/xlink">
<defs fill="#000000">
<linearGradient id="a" x1="458.25" x2="46.619" y1="4.3437" y2="460.13" gradientTransform="translate(-45.93 .77154)" gradientUnits="userSpaceOnUse" fill="#000000">
<stop stop-color="#00ffb1" offset="0" fill="#000000"/>
<stop stop-color="#2bcafc" offset=".25" fill="#000000"/>
<stop stop-color="#0077bf" offset=".5" fill="#000000"/>
<stop stop-color="#9554ff" offset=".75" fill="#000000"/>
<stop stop-color="#f7467b" offset="1" fill="#000000"/>
</linearGradient>
</defs>
<g transform="translate(-.17904 -1.3928)">
<path d="m7.0319 440.11c3.7691-10.663 8.7451-24.743 11.058-31.289 2.3127-6.5455 7.1703-19.925 10.795-29.732l6.5899-17.831 14.238-2.0428c22.945-3.2922 57.063-14.446 65.962-21.565 1.9721-1.5776 2.2251-1.3066 1.3669 1.4644-2.9877 9.6462-19.526 55.356-21.53 59.505-0.90321 1.8702-4.2702 11.051-7.4823 20.402-3.2121 9.3508-7.4729 21.295-9.4685 26.543l-3.6284 9.5415-9.7413 1.1111c-5.3577 0.6111-22.177 1.5991-37.376 2.1956l-27.635 1.0845zm33.966-90.847c0-1.4601 6.7735-21.738 8.5007-25.448 0.87052-1.8702 3.0842-7.9907 4.9194-13.601 1.8351-5.6105 4.2589-12.496 5.3862-15.301 2.415-6.0099 8.6807-23.272 25.302-69.706 6.6943-18.702 13.195-36.298 14.445-39.103 1.2504-2.8052 2.7969-7.0131 3.4367-9.3508 0.63972-2.3377 2.9405-8.8407 5.1129-14.451 2.1723-5.6105 6.4835-17.278 9.5804-25.927l5.6306-15.726h73.862l-5.1741 14.026c-7.3659 19.968-16.418 45.039-19.489 53.98-1.4455 4.2078-3.6101 9.9458-4.8103 12.751-1.2002 2.8052-3.9063 10.456-6.0136 17.001-2.1073 6.5456-4.3915 12.666-5.076 13.601s-2.9417 7.0556-5.016 13.601c-2.0743 6.5456-4.7479 14.196-5.9414 17.001-2.0794 4.8877-6.4274 16.684-17.973 48.761-5.8171 16.162-6.2118 16.557-24.627 24.657-20.009 8.8-62.055 17.768-62.055 13.236zm98.616-24.935c3e-3 -0.28218 1.9556-5.8685 4.3368-12.414 2.3811-6.5455 5.499-15.344 6.9285-19.552s3.255-9.1808 4.0566-11.051c0.80162-1.8702 3.2272-8.1707 5.3901-14.001l3.9326-10.601 39.953-0.0688c47.946-0.0827 69.529-1.9186 79.505-6.7635 3.9869-1.9362 8.9598-4.1929 11.051-5.0149 5.6371-2.2159 20.321-13.706 26.207-20.505 11.514-13.303 20.148-31.522 22.397-47.26l1.1424-7.9944 69.263-0.9219-1.2019 10.662c-3.0402 26.969-16.98 62.507-32.059 81.728-13.564 17.29-33.409 34.43-51.316 44.319-10.96 6.0529-30.474 13.808-39.131 15.552-3.7403 0.75335-7.9482 1.7611-9.3508 2.2395-2.6852 0.9158-141.12 2.5321-141.1 1.6475zm204.13-172.65c-5.9076-35.152-27.812-62.035-61.683-75.704-8.5251-3.4402-12.337-3.6602-73.174-4.2224-48.307-0.44639-64.178-1.0955-64.17-2.6244 6e-3 -1.1172 1.0084-3.944 2.228-6.2817 1.2196-2.3377 4.3607-10.753 6.9802-18.702 2.6195-7.9482 5.3212-15.216 6.004-16.151 0.68271-0.93508 3.0063-7.303 5.1636-14.151l3.9223-12.451 53.726 0.62197c49.73 0.57568 54.738 0.91008 67.327 4.4958 13.3 3.7881 17.574 5.4122 33.153 12.598 27.355 12.618 60.913 46.172 72.649 72.641 2.2804 5.1429 5.1923 11.646 6.4708 14.451 3.7451 8.2172 9.4671 32.937 10.514 45.42l0.96708 11.535h-68.15z" fill="#ffffff"/>
</g>
</svg>