<?xml version="1.0" encoding="UTF-8" standalone="no"?>
<!-- Created with Inkscape (http://www.inkscape.org/) -->

<svg
   width="144.13826mm"
   height="130.83156mm"
   viewBox="0 0 144.13826 130.83156"
   version="1.1"
   id="svg1"
   xml:space="preserve"
   inkscape:export-filename="bitmap.svg"
   inkscape:export-xdpi="96"
   inkscape:export-ydpi="96"
   inkscape:version="1.3.2 (091e20ef0f, 2023-11-25, custom)"
   sodipodi:docname="kayf.svg"
   xmlns:inkscape="http://www.inkscape.org/namespaces/inkscape"
   xmlns:sodipodi="http://sodipodi.sourceforge.net/DTD/sodipodi-0.dtd"
   xmlns="http://www.w3.org/2000/svg"
   xmlns:svg="http://www.w3.org/2000/svg"><sodipodi:namedview
     id="namedview1"
     pagecolor="#ffffff"
     bordercolor="#000000"
     borderopacity="0.25"
     inkscape:showpageshadow="2"
     inkscape:pageopacity="0.0"
     inkscape:pagecheckerboard="0"
     inkscape:deskcolor="#d1d1d1"
     inkscape:document-units="mm"
     inkscape:zoom="0.8471566"
     inkscape:cx="448.55933"
     inkscape:cy="7.0825158"
     inkscape:window-width="1920"
     inkscape:window-height="1080"
     inkscape:window-x="0"
     inkscape:window-y="-30"
     inkscape:window-maximized="0"
     inkscape:current-layer="layer1" /><defs
     id="defs1" /><g
     inkscape:label="Layer 1"
     inkscape:groupmode="layer"
     id="layer1"
     transform="translate(-36.262718,-74.460841)"><path
       style="stroke:none"
        fill="currentColor"
       d="m 44.653257,74.567145 c -1.604972,0.38429 -2.525315,2.23199 -3.263195,3.52778 -1.745888,3.06595 -2.978556,6.60746 -3.792361,10.054173 -2.633648,11.15427 -1.401008,22.634052 3.96875,32.808332 2.269079,4.29931 5.535538,8.00127 8.025695,12.17084 1.003801,1.68078 2.716804,3.8294 2.910416,5.82083 0.313784,3.22749 -1.708159,7.28869 -2.028472,10.58333 -0.888233,9.13612 1.123435,18.04842 2.116666,26.98751 0.559145,5.0323 0.871541,10.28511 3.263195,14.81666 1.972134,3.73668 5.441811,7.04231 9.965971,6.79097 2.635135,-0.1464 5.276483,-2.24687 7.9375,-1.32291 1.652019,0.57362 2.833673,2.18358 4.233333,3.175 3.516912,2.49115 7.799169,4.69025 12.170833,5.11528 3.775028,0.36701 8.034058,0.22037 11.641672,-0.88195 1.85186,-0.56584 5.08248,-2.94528 6.87917,-2.64583 2.17848,0.36308 4.12803,2.26673 6.35,2.82222 4.5746,1.14365 10.27012,1.26293 14.81666,0 3.10128,-0.86147 5.90525,-2.27669 8.46667,-4.23333 1.52452,-1.16456 2.82546,-2.92842 4.7625,-3.43958 1.69532,-0.44738 3.17351,0.41857 4.7625,0.79375 3.43688,0.81148 7.3434,0.17705 10.05416,-2.11667 3.59703,-3.04364 4.86276,-8.64123 5.29167,-13.05278 0.98142,-10.09462 4.17255,-20.43122 3.175,-30.69167 -0.31038,-3.1925 -0.97314,-6.36544 -1.5875,-9.525 -0.27522,-1.41546 -0.95422,-2.81201 -0.44097,-4.23333 2.18289,-6.04493 7.42443,-10.75309 10.40695,-16.40417 5.40855,-10.24778 7.20817,-22.064412 4.23333,-33.337502 -1.02403,-3.880573 -2.48044,-10.491803 -5.82083,-13.052783 -3.15373,-2.41786 -5.3944,2.7106 -6.87918,4.58611 -5.46131,6.898503 -12.1555,12.072953 -20.02013,15.786803 -6.0183,2.84198 -14.47363,4.972252 -21.16667,4.32153 -3.55106,-0.34524 -7.01221,-1.76947 -10.58333,-2.11666 -2.93519,-0.28537 -6.04479,0 -8.99583,0 -4.81883,0 -9.063304,1.6602 -13.758342,2.11666 -6.023021,0.585582 -13.450571,-1.17383 -19.049999,-3.35138 -8.301153,-3.22823 -15.185678,-8.54435 -21.166666,-15.169453 -1.576197,-1.74595 -3.962763,-7.40108 -6.879166,-6.70278 m 4.762499,12.523613 c 8.071829,8.07182 19.461126,16.004942 31.220833,16.933342 v 0.52917 c -3.457432,2.36561 -6.779379,4.59392 -10.054167,7.23194 -0.957354,0.77121 -2.344339,2.38108 -3.704166,2.11667 -1.841712,-0.35811 -4.015378,-2.79838 -5.291667,-4.05695 -4.444455,-4.38272 -8.453646,-9.44824 -10.583333,-15.345832 -0.698162,-1.93337 -2.547768,-5.78327 -1.5875,-7.40834 m 118.533334,0 c -2.39404,8.27035 -5.90557,16.909592 -12.7,22.665982 -1.40179,1.18763 -4.31138,4.5731 -6.35,4.23333 -1.62193,-0.27032 -2.99814,-2.46172 -4.23333,-3.43958 -2.81923,-2.23189 -5.78889,-4.39374 -8.99583,-5.99722 l 6.34999,-1.76389 11.1125,-4.674312 9.525,-6.79097 5.29167,-4.23334 m -124.354167,1.05834 c 3.281216,11.3351 9.256271,23.636142 20.108333,29.633332 l -2.998612,4.7625 -4.938888,8.99584 h -1.058333 c -1.605696,-4.06777 -4.989785,-7.35819 -7.231944,-11.1125 -3.905359,-6.53921 -5.997222,-14.05607 -5.997222,-21.695842 0,-2.93072 0.208852,-8.37428 2.116666,-10.58333 m 129.645837,0 1.5875,10.58333 -2.29306,14.816672 -10.93611,17.99167 h -0.52917 l -5.64444,-9.525 -2.11667,-3.70417 1.94028,-2.20486 5.82083,-5.20347 8.81945,-13.229172 3.35139,-9.525 m -30.1625,27.516672 v 0.52916 c -2.64323,-0.48691 -5.25391,-1.32659 -7.9375,-1.5875 -6.41683,-0.62386 -14.35131,2.63729 -19.05,6.87917 -3.11049,2.80808 -5.06416,6.8911 -7.9375,9.525 -1.57899,-2.30776 -2.87253,-4.78566 -4.7625,-6.87917 -5.008584,-5.54796 -12.217347,-8.80926 -19.579172,-9.525 -3.46985,-0.33735 -6.723204,0.9739 -10.054166,1.5875 2.521091,-4.01082 8.551864,-6.5384 12.7,-8.55486 13.620938,-6.62129 30.778128,-6.27978 44.450008,0.17639 4.3963,2.07604 8.21669,5.03979 12.17083,7.84931 m -61.383338,4.32153 c 1.32439,-0.18395 2.408489,0.297 3.704166,0.44097 12.950408,1.43894 21.350352,13.15423 20.108342,25.92916 -1.05332,10.83407 -10.691634,19.08993 -21.166675,20.10834 -17.891361,1.73943 -30.545231,-18.10814 -22.665971,-33.86667 4.018576,-8.03715 11.628314,-11.44628 20.020138,-12.6118 m 51.858338,0 c 1.32438,-0.18395 2.40848,0.297 3.70416,0.44097 12.04115,1.33792 21.29398,12.67566 20.10834,24.87083 -1.07499,11.05692 -10.10975,20.09169 -21.16667,21.16667 -20.02162,1.94654 -32.38404,-21.96264 -20.46111,-37.57084 4.45978,-5.83825 10.90803,-7.9483 17.81528,-8.90763 m -53.975005,12.25902 c -12.211992,2.88338 -10.315887,20.64889 1.5875,22.1368 1.499303,0.18742 3.289092,0.18564 4.7625,-0.26458 13.768231,-4.20696 7.503391,-25.14315 -6.35,-21.87222 m 51.858335,0 c -8.12918,1.91938 -11.42256,12.70953 -5.73263,18.87361 2.2409,2.42765 5.22101,3.17501 8.37847,3.17501 1.19051,0 2.5501,0.17624 3.70416,-0.1764 7.34313,-2.24373 10.00033,-12.57121 5.11528,-18.34444 -2.73815,-3.23599 -7.3789,-4.49262 -11.46528,-3.52778 m -50.270835,5.20348 c 6.81768,-1.32566 10.517615,9.01129 3.704167,11.37707 -8.100862,2.81282 -11.94726,-9.77426 -3.704167,-11.37707 m 51.858335,0 c 6.93189,-1.15532 9.93149,9.31259 3.175,11.37707 -8.04068,2.45689 -11.29757,-10.02331 -3.175,-11.37707 m -76.729167,16.31597 c 3.575282,9.70435 13.520084,16.99102 23.812499,17.99167 2.825829,0.27473 5.721223,-0.0955 8.466666,-0.70557 1.367242,-0.30382 3.398925,-1.58804 4.762498,-1.32291 1.46455,0.28478 2.70789,2.09054 3.70417,3.08681 l 7.408334,7.40833 c 0.97629,0.97629 2.2292,2.70556 3.70417,2.91042 1.68337,0.2338 3.20086,-1.87795 4.23333,-2.91042 l 7.40834,-7.40833 c 0.90242,-0.90242 1.96217,-2.42191 3.175,-2.91042 1.39643,-0.56245 3.40998,0.82718 4.7625,1.14652 2.82963,0.66812 6.07733,0.98931 8.99583,0.70557 6.59484,-0.64116 13.53129,-4.12374 17.99166,-8.99584 2.49049,-2.72037 3.91248,-5.97425 5.82084,-8.99583 h 0.52916 c 0,8.69347 -1.34459,17.95192 -2.99861,26.45833 -0.74815,3.84762 -0.79587,8.17242 -3.88055,11.1125 -2.04756,1.95158 -4.6065,0.87082 -6.87917,0.17639 -2.31055,-0.706 -4.64966,-0.57618 -6.87917,0.35278 -2.65925,1.10802 -4.49937,3.56181 -6.87916,5.11528 -3.94056,2.5723 -9.13244,3.27196 -13.75833,2.82222 -2.75771,-0.26811 -5.53859,-1.46793 -7.9375,-2.73403 -1.11421,-0.58805 -2.38493,-1.92538 -3.70417,-1.85208 -1.99775,0.11099 -4.44408,2.58373 -6.35,3.35139 -4.209694,1.69557 -9.427134,1.73228 -13.758338,0.52917 -5.015384,-1.39317 -7.989802,-6.08008 -12.7,-7.58473 -4.019784,-1.2841 -9.239594,2.71762 -12.699999,0.17639 -2.439203,-1.79129 -3.393501,-6.02346 -3.704167,-8.81944 -0.727527,-6.54774 -2.008201,-13.02067 -2.645833,-19.57917 -0.257034,-2.64377 -1.592317,-7.33557 0,-9.525 m 52.387507,2.11667 c 2.59767,4.11299 5.1403,8.1602 9.525,10.58333 l -6.87917,7.40833 -3.175,2.46945 -2.64583,-1.94028 -6.879174,-7.9375 c 3.663434,-2.60296 7.428874,-6.33014 8.995834,-10.58333 z"
       id="path1" /></g></svg>
