<?xml version="1.0" encoding="UTF-8" standalone="no"?>
<!-- Created with Inkscape (http://www.inkscape.org/) -->

<svg
   version="1.1"
   id="svg955"
   width="413.64267"
   height="458.1098"
   viewBox="0 0 413.64267 458.1098"
   xmlns:xlink="http://www.w3.org/1999/xlink"
   xmlns="http://www.w3.org/2000/svg"
   xmlns:svg="http://www.w3.org/2000/svg">
  <defs
     id="defs959">
    <linearGradient
       id="linearGradient1852">
      <stop
         style="stop-color:#00ffb1;stop-opacity:1;"
         offset="0"
         id="stop1860" />
      <stop
         style="stop-color:#2bcafc;stop-opacity:1;"
         offset="0.25"
         id="stop1858" />
      <stop
         style="stop-color:#0077bf;stop-opacity:1;"
         offset="0.5"
         id="stop1848" />
      <stop
         style="stop-color:#9554ff;stop-opacity:1;"
         offset="0.75"
         id="stop1856" />
      <stop
         style="stop-color:#f7467b;stop-opacity:1;"
         offset="1"
         id="stop1850" />
    </linearGradient>
    <linearGradient
       xlink:href="#linearGradient1852"
       id="linearGradient1854"
       x1="458.24533"
       y1="4.3436956"
       x2="46.619289"
       y2="460.13007"
       gradientUnits="userSpaceOnUse"
       gradientTransform="translate(-45.929949,0.77153555)" />
  </defs>
  <g
     id="g961"
     transform="translate(-0.17903598,-1.3927884)">
    <path
       style="fill:url(#linearGradient1854);fill-opacity:1;stroke:none;stroke-width:1.70014"
       d="m 7.031929,440.11485 c 3.769096,-10.66326 8.745086,-24.74318 11.057773,-31.28874 2.312672,-6.54553 7.170309,-19.92475 10.794732,-29.73158 l 6.589853,-17.83058 14.237542,-2.04285 c 22.945322,-3.29222 57.062751,-14.44641 65.961651,-21.56517 1.97209,-1.5776 2.2251,-1.30656 1.36689,1.46437 -2.98768,9.64625 -19.526329,55.35639 -21.529839,59.50496 -0.90321,1.87017 -4.27023,11.05092 -7.4823,20.40171 -3.21207,9.35078 -7.47291,21.29511 -9.46853,26.54294 l -3.62841,9.54151 -9.74132,1.1111 c -5.35772,0.6111 -22.176987,1.5991 -37.376111,2.19557 l -27.63482402,1.08449 z m 33.96552,-90.84734 c 0,-1.46013 6.773528,-21.738 8.500713,-25.44849 0.870516,-1.87016 3.084246,-7.99067 4.919389,-13.60114 1.83513,-5.61047 4.25889,-12.49605 5.38615,-15.30127 2.41501,-6.00991 8.68074,-23.27168 25.30205,-69.70582 6.69432,-18.70157 13.19459,-36.29804 14.44505,-39.10327 1.250429,-2.80523 2.796939,-7.01309 3.436679,-9.35078 0.63972,-2.33769 2.94054,-8.84074 5.11293,-14.45121 2.17234,-5.61047 6.48353,-17.2777 9.58038,-25.92716 l 5.63062,-15.72631 h 36.9308 36.93078 l -5.17409,14.02615 c -7.36586,19.96786 -16.4177,45.03919 -19.48893,53.97952 -1.44549,4.20785 -3.61013,9.94584 -4.81029,12.75107 -1.20018,2.80523 -3.9063,10.45587 -6.01359,17.00141 -2.10729,6.54555 -4.39148,12.66606 -5.07597,13.60114 -0.68449,0.93508 -2.94166,7.05559 -5.01596,13.60114 -2.07428,6.54555 -4.74792,14.19618 -5.9414,17.00141 -2.07945,4.88774 -6.42735,16.68377 -17.97272,48.76089 -5.81713,16.16196 -6.21178,16.55709 -24.62741,24.65657 -20.008529,8.80005 -62.055181,17.76846 -62.055181,13.23615 z m 98.615641,-24.93543 c 0.003,-0.28218 1.95561,-5.86851 4.33675,-12.41406 2.38114,-6.54554 5.49897,-15.34377 6.9285,-19.55163 1.42953,-4.20786 3.255,-9.18076 4.05662,-11.05092 0.80162,-1.87015 3.22718,-8.17072 5.39013,-14.00122 l 3.93265,-10.60094 39.95335,-0.0688 c 47.94583,-0.0827 69.52888,-1.91865 79.50494,-6.76346 3.98691,-1.9362 8.95983,-4.19291 11.05092,-5.01491 5.63714,-2.21588 20.32138,-13.70562 26.20662,-20.50543 11.51353,-13.30275 20.14751,-31.52183 22.39654,-47.26021 l 1.14241,-7.9944 34.63168,-0.46094 34.63167,-0.46096 -1.20192,10.66182 c -3.04025,26.96904 -16.9803,62.50676 -32.05855,81.72769 -13.56381,17.29037 -33.40923,34.43003 -51.31572,44.31923 -10.95999,6.05288 -30.47422,13.8085 -39.13143,15.55218 -3.74031,0.75335 -7.94816,1.76111 -9.35078,2.2395 -2.68522,0.9158 -141.11716,2.53207 -141.10438,1.64747 z M 343.74328,151.67965 c -5.90763,-35.15207 -27.81196,-62.03546 -61.68284,-75.703897 -8.52507,-3.44023 -12.33723,-3.660217 -73.17396,-4.222384 -48.30674,-0.446393 -64.1778,-1.095464 -64.16991,-2.624427 0.006,-1.117242 1.00838,-3.944026 2.22803,-6.281715 1.21965,-2.337702 4.36072,-10.753405 6.9802,-18.701565 2.61947,-7.948161 5.32124,-15.216264 6.00396,-16.151345 0.68271,-0.935081 3.00632,-7.302957 5.1636,-14.150833 l 3.92229,-12.4506956 53.72624,0.6219672 c 49.73013,0.575677 54.73786,0.910079 67.32736,4.4957662 13.30027,3.7881142 17.57415,5.4121932 33.15277,12.5981152 27.35465,12.617848 60.91251,46.171929 72.64915,72.641006 2.28044,5.142931 5.1923,11.645967 6.47083,14.451207 3.74508,8.21715 9.46713,32.9367 10.51362,45.41951 l 0.96708,11.53524 h -34.07489 -34.07489 z"
       id="path967" />
  </g>
</svg>
